# xmcd
#
# Track frame offsets: 
#        150
#        23850
#        76650
#        125475
#        164625
#        199425
#        230025
#
# Disc length: 3672 seconds
#
# Revision: 1
# Processed by: cddbd v1.5.2PL0 Copyright (c) Steve Scherf et al.
# Submitted via: ExactAudioCopy v0.95b4
#
DISCID=5b0e5607
DTITLE=Runestone - Sacred Circle
DYEAR=2006
DGENRE=New Age
TTITLE0=Gateway to an Ancient World
TTITLE1=The Sentient Forest
TTITLE2=Avenue of Standing Stones
TTITLE3=The Well of Secrets
TTITLE4=Lunar Invocation
TTITLE5=Forgotten Gods
TTITLE6=Dawn of Enlightenment
EXTD=YEAR: 2007
EXTT0=
EXTT1=
EXTT2=
EXTT3=
EXTT4=
EXTT5=
EXTT6=
PLAYORDER=
